<svg width="35" height="30" viewBox="0 0 35 30" fill="none" xmlns="http://www.w3.org/2000/svg">
<path d="M2.38711 30.0001H7.95225V14.5574L0 7.73535V27.2729C0 28.7849 1.07119 30.0001 2.38711 30.0001Z" fill="#4285F4"/>
<path d="M27.0477 30.0001H32.6129C33.9288 30.0001 35 28.7763 35 27.2729V7.73535L27.0477 14.5488V30.0001Z" fill="#34A853"/>
<path d="M27.0477 2.73677V14.5486L35 7.73517V4.09649C35 0.729595 31.6333 -1.19792 29.2742 0.825658L27.0477 2.73677Z" fill="#FBBC04"/>
<path d="M7.95227 14.5573V2.73682L17.5 10.9186L27.0478 2.73682V14.5573L17.5 22.7304L7.95227 14.5573Z" fill="#EA4335"/>
<path d="M0 4.1043V7.74298L7.95225 14.5564V2.73677L5.72578 0.83347C3.3667 -1.1901 0 0.737407 0 4.1043Z" fill="#C5221F"/>
</svg>
